ply
format ascii 1.0
comment VTK generated PLY File
obj_info vtkPolyData points and polygons: vtk4.0
element vertex 998
property float x
property float y
property float z
element face 1143
property list uchar int vertex_indices
end_header
-0.023256 1.57999 2.09285 
-0.027331 3.25799 0.156708 
0.038086 3.25812 0.156689 
0.042161 1.58012 2.09283 
-0.027661 3.36263 -0.220034 
0.037756 3.36277 -0.220053 
-0.027786 3.39053 -0.447202 
0.037631 3.39067 -0.447221 
-0.027819 3.37789 -0.645854 
0.037599 3.37803 -0.645873 
-0.027805 3.35728 -0.74438 
0.037612 3.35742 -0.7444 
-0.027737 3.32561 -0.736212 
0.037681 3.32575 -0.736231 
-0.027744 3.35635 -0.54476 
0.037673 3.35649 -0.544779 
-0.027674 3.35009 -0.351453 
0.037744 3.35023 -0.351472 
-0.0274 3.27097 0.016779 
0.038018 3.27111 0.01676 
-0.027276 3.22935 0.139802 
0.038141 3.22949 0.139783 
-0.023211 1.55527 2.07143 
0.042206 1.55541 2.07141 
-0.120428 3.28678 -0.200712 
0.005219 3.28705 -0.175757 
0.005053 3.31956 -0.50407 
-0.226961 3.28656 -0.271849 
-0.298162 3.28641 -0.37834 
-0.32319 3.28636 -0.503973 
-0.298236 3.28641 -0.62962 
-0.227099 3.28656 -0.736152 
-0.120608 3.28679 -0.807353 
0.005024 3.28705 -0.832382 
0.130671 3.28731 -0.807428 
0.237204 3.28753 -0.73629 
0.308404 3.28768 -0.629799 
0.333433 3.28773 -0.504167 
0.308479 3.28768 -0.37852 
0.237342 3.28753 -0.271987 
0.130851 3.28731 -0.200786 
-0.240901 3.19027 0.090864 
0.005513 3.19078 0.139804 
-0.449829 3.18983 -0.048648 
-0.589465 3.18954 -0.257494 
-0.63855 3.18944 -0.503879 
-0.589611 3.18954 -0.750294 
-0.450099 3.18983 -0.959223 
-0.241253 3.19027 -1.09886 
0.005132 3.19078 -1.14794 
0.251545 3.1913 -1.099 
0.460474 3.19173 -0.959492 
0.600109 3.19202 -0.750646 
0.649194 3.19213 -0.504261 
0.600255 3.19202 -0.257847 
0.460744 3.19173 -0.048918 
0.251898 3.19129 0.090719 
-0.240981 3.2289 0.090865 
0.005432 3.22941 0.139804 
-0.44991 3.22846 -0.048648 
-0.589546 3.22817 -0.257494 
-0.638631 3.22807 -0.503879 
-0.589692 3.22817 -0.750294 
-0.45018 3.22847 -0.959222 
-0.241334 3.2289 -1.09886 
0.005051 3.22942 -1.14794 
0.251465 3.22993 -1.099 
0.460393 3.23037 -0.959492 
0.600029 3.23066 -0.750646 
0.649114 3.23076 -0.504261 
0.600175 3.23065 -0.257846 
0.460663 3.23036 -0.048917 
0.251817 3.22993 0.090719 
-0.120509 3.32542 -0.200711 
0.005138 3.32568 -0.175757 
-0.227042 3.3252 -0.271849 
-0.298242 3.32505 -0.37834 
-0.323271 3.32499 -0.503972 
-0.298317 3.32505 -0.629619 
-0.227179 3.3252 -0.736153 
-0.120688 3.32542 -0.807353 
0.004944 3.32568 -0.832382 
0.13059 3.32594 -0.807428 
0.237123 3.32616 -0.73629 
0.308324 3.32631 -0.629799 
0.333352 3.32636 -0.504167 
0.308398 3.32631 -0.37852 
0.237261 3.32616 -0.271987 
0.13077 3.32594 -0.200786 
0.004973 3.35819 -0.50407 
0.138582 -0.386126 -0.265941 
0.15 -0.386126 -0.323343 
0.15 -0.870053 -0.323343 
0.138582 -0.870053 -0.265941 
0.106066 -0.386126 -0.217278 
0.106066 -0.870053 -0.217278 
0.057402 -0.386126 -0.184761 
0.057402 -0.870053 -0.184761 
0 -0.386126 -0.173344 
0 -0.870053 -0.173344 
-0.057402 -0.386126 -0.184761 
-0.057402 -0.870053 -0.184761 
-0.106066 -0.386126 -0.217278 
-0.106066 -0.870053 -0.217278 
-0.138582 -0.386126 -0.265941 
-0.138582 -0.870053 -0.265941 
-0.15 -0.386126 -0.323343 
-0.15 -0.870053 -0.323343 
-0.138582 -0.386126 -0.380746 
-0.138582 -0.870053 -0.380746 
-0.106066 -0.386126 -0.429409 
-0.106066 -0.870053 -0.429409 
-0.057402 -0.386126 -0.461926 
-0.057402 -0.870053 -0.461926 
0 -0.386126 -0.473343 
0 -0.870053 -0.473343 
0.057402 -0.386126 -0.461926 
0.057402 -0.870053 -0.461926 
0.106066 -0.386126 -0.429409 
0.106066 -0.870053 -0.429409 
0.138582 -0.386126 -0.380746 
0.138582 -0.870053 -0.380746 
0.044901 -0.386128 -0.278442 
0.058666 -0.386128 -0.299043 
0.063499 -0.386128 -0.323343 
0.058666 -0.386128 -0.347644 
0.044901 -0.386127 -0.368244 
0.0243 -0.386127 -0.38201 
0 -0.386126 -0.386844 
-0.0243 -0.386125 -0.38201 
-0.044901 -0.386125 -0.368244 
-0.058666 -0.386125 -0.347644 
-0.063499 -0.386125 -0.323343 
-0.058666 -0.386125 -0.299043 
-0.044901 -0.386125 -0.278442 
-0.0243 -0.386126 -0.264677 
0 -0.386127 -0.259843 
0.0243 -0.386127 -0.264677 
-0.03727 -0.266071 -0.273343 
-0.044901 -0.26606 -0.278442 
-0.095551 -0.265984 -0.273343 
-0.058666 -0.266039 -0.299043 
-0.095551 -0.265984 -0.373343 
-0.063499 -0.266032 -0.323343 
-0.058666 -0.266039 -0.347644 
-0.044901 -0.26606 -0.368244 
-0.03727 -0.266071 -0.373343 
-0.190168 -0.261303 -0.373343 
-0.190168 -0.261303 -0.273343 
-0.283854 -0.252083 -0.373343 
-0.283854 -0.252083 -0.273343 
-0.376606 -0.238325 -0.373343 
-0.376606 -0.238325 -0.273343 
-0.468428 -0.220028 -0.373343 
-0.468428 -0.220028 -0.273343 
-0.559315 -0.197192 -0.373343 
-0.559315 -0.197192 -0.273343 
-0.649271 -0.169818 -0.373343 
-0.649271 -0.169818 -0.273343 
-0.738295 -0.137905 -0.373343 
-0.738295 -0.137905 -0.273343 
-0.765182 -0.126621 -0.373343 
-0.765182 -0.126621 -0.273343 
-0.791218 -0.11385 -0.373343 
-0.791218 -0.11385 -0.273343 
-0.816403 -0.099597 -0.373343 
-0.816403 -0.099597 -0.273343 
-0.840737 -0.083858 -0.373343 
-0.840737 -0.083858 -0.273343 
-0.864221 -0.066633 -0.373343 
-0.864221 -0.066633 -0.273343 
-0.886853 -0.047925 -0.373343 
-0.886853 -0.047925 -0.273343 
-0.908634 -0.027731 -0.373343 
-0.908634 -0.027731 -0.273343 
-0.929564 -0.006053 -0.373343 
-0.929564 -0.006053 -0.273343 
-0.93885 0.00458 -0.373343 
-0.93885 0.00458 -0.273343 
-0.947485 0.01546 -0.373343 
-0.947485 0.01546 -0.273343 
-0.955468 0.026591 -0.373343 
-0.955468 0.026591 -0.273343 
-0.962801 0.03797 -0.373343 
-0.962801 0.03797 -0.273343 
-0.969481 0.049596 -0.373343 
-0.969481 0.049596 -0.273343 
-0.975512 0.061471 -0.373343 
-0.975512 0.061471 -0.273343 
-0.980891 0.073594 -0.373343 
-0.980891 0.073594 -0.273343 
-0.985619 0.085965 -0.373343 
-0.985619 0.085965 -0.273343 
-0.989696 0.098585 -0.373343 
-0.989696 0.098585 -0.273343 
-0.993121 0.111452 -0.373343 
-0.993121 0.111452 -0.273343 
-0.995895 0.124568 -0.373343 
-0.995895 0.124568 -0.273343 
-0.998018 0.137933 -0.373343 
-0.998018 0.137933 -0.273343 
-0.99949 0.151546 -0.373343 
-0.99949 0.151546 -0.273343 
-1.00031 0.165406 -0.373343 
-1.00031 0.165406 -0.273343 
-1.00048 0.179516 -0.373343 
-1.00048 0.179516 -0.273343 
-1 0.193874 -0.373343 
-1 0.193874 -0.273343 
-1 0.333874 -0.373343 
-1 0.333874 -0.273343 
-0.95 0.333874 -0.373343 
-0.95 0.333874 -0.273343 
-0.95 0.285087 -0.344557 
-0.95 0.291589 -0.334824 
-0.95 0.293874 -0.323343 
-0.95 0.291589 -0.311863 
-0.95 0.285087 -0.30213 
-0.95 0.275354 -0.295627 
-0.95 0.193874 -0.273343 
-0.95 0.263874 -0.293344 
-0.95 0.252393 -0.295627 
-0.95 0.24266 -0.30213 
-0.95 0.193874 -0.373343 
-0.95 0.236156 -0.311863 
-0.95 0.233874 -0.323343 
-0.95 0.236156 -0.334824 
-0.95 0.24266 -0.344557 
-0.95 0.252393 -0.35106 
-0.95 0.263874 -0.353343 
-0.95 0.275354 -0.35106 
-0.950829 0.180508 -0.373343 
-0.950829 0.180508 -0.273343 
-0.951025 0.167398 -0.373343 
-0.951025 0.167398 -0.273343 
-0.950587 0.154547 -0.373343 
-0.950587 0.154547 -0.273343 
-0.949516 0.141953 -0.373343 
-0.949516 0.141953 -0.273343 
-0.947812 0.129616 -0.373343 
-0.947812 0.129616 -0.273343 
-0.945475 0.117536 -0.373343 
-0.945475 0.117536 -0.273343 
-0.942504 0.105714 -0.373343 
-0.942504 0.105714 -0.273343 
-0.9389 0.094148 -0.373343 
-0.9389 0.094148 -0.273343 
-0.934662 0.082839 -0.373343 
-0.934662 0.082839 -0.273343 
-0.929791 0.071789 -0.373343 
-0.929791 0.071789 -0.273343 
-0.924288 0.060995 -0.373343 
-0.924288 0.060995 -0.273343 
-0.91815 0.050457 -0.373343 
-0.91815 0.050457 -0.273343 
-0.91138 0.040178 -0.373343 
-0.91138 0.040178 -0.273343 
-0.903976 0.030156 -0.373343 
-0.903976 0.030156 -0.273343 
-0.895939 0.020391 -0.373343 
-0.895939 0.020391 -0.273343 
-0.887268 0.010884 -0.373343 
-0.887268 0.010884 -0.273343 
-0.867909 -0.008307 -0.373343 
-0.867909 -0.008307 -0.273343 
-0.84783 -0.026218 -0.373343 
-0.84783 -0.026218 -0.273343 
-0.827029 -0.042856 -0.373343 
-0.827029 -0.042856 -0.273343 
-0.805508 -0.058214 -0.373343 
-0.805508 -0.058214 -0.273343 
-0.783266 -0.072297 -0.373343 
-0.783266 -0.072297 -0.273343 
-0.760303 -0.085104 -0.373343 
-0.760303 -0.085104 -0.273343 
-0.736618 -0.096634 -0.373343 
-0.736618 -0.096634 -0.273343 
-0.712214 -0.106889 -0.373343 
-0.712214 -0.106889 -0.273343 
-0.626438 -0.137764 -0.373343 
-0.626438 -0.137764 -0.273343 
-0.539734 -0.16415 -0.373343 
-0.539734 -0.16415 -0.273343 
-0.452103 -0.186043 -0.373343 
-0.452103 -0.186043 -0.273343 
-0.363539 -0.203444 -0.373343 
-0.363539 -0.203444 -0.273343 
-0.274048 -0.216352 -0.373343 
-0.274048 -0.216352 -0.273343 
-0.183628 -0.224769 -0.373343 
-0.183628 -0.224769 -0.273343 
-0.092279 -0.228693 -0.373343 
-0.092279 -0.228693 -0.273343 
0 -0.228126 -0.373343 
0 -0.228126 -0.273343 
0 -0.236126 -0.273343 
-0.03727 -0.236126 -0.273343 
-0.03727 -0.236126 -0.373343 
0 -0.236126 -0.373343 
0.03727 -0.266071 -0.373343 
0.044901 -0.26606 -0.368244 
0.095551 -0.265984 -0.373343 
0.058666 -0.266039 -0.347644 
0.095551 -0.265984 -0.273343 
0.063499 -0.266032 -0.323343 
0.058666 -0.266039 -0.299043 
0.044901 -0.26606 -0.278442 
0.03727 -0.266071 -0.273343 
0.190168 -0.261303 -0.273343 
0.190168 -0.261303 -0.373343 
0.283854 -0.252083 -0.273343 
0.283854 -0.252083 -0.373343 
0.376606 -0.238325 -0.273343 
0.376606 -0.238325 -0.373343 
0.468428 -0.220028 -0.273343 
0.468428 -0.220028 -0.373343 
0.559315 -0.197192 -0.273343 
0.559315 -0.197192 -0.373343 
0.649271 -0.169818 -0.273343 
0.649271 -0.169818 -0.373343 
0.738295 -0.137905 -0.273343 
0.738295 -0.137905 -0.373343 
0.765182 -0.126621 -0.273343 
0.765182 -0.126621 -0.373343 
0.791218 -0.11385 -0.273343 
0.791218 -0.11385 -0.373343 
0.816402 -0.099597 -0.273343 
0.816402 -0.099597 -0.373343 
0.840738 -0.083858 -0.273343 
0.840738 -0.083858 -0.373343 
0.86422 -0.066633 -0.273343 
0.86422 -0.066633 -0.373343 
0.886852 -0.047925 -0.273343 
0.886852 -0.047925 -0.373343 
0.908634 -0.027731 -0.273343 
0.908634 -0.027731 -0.373343 
0.929565 -0.006053 -0.273343 
0.929565 -0.006053 -0.373343 
0.93885 0.00458 -0.273343 
0.93885 0.00458 -0.373343 
0.947485 0.01546 -0.273343 
0.947485 0.01546 -0.373343 
0.955469 0.026591 -0.273343 
0.955469 0.026591 -0.373343 
0.962801 0.03797 -0.273343 
0.962801 0.03797 -0.373343 
0.969482 0.049596 -0.273343 
0.969482 0.049596 -0.373343 
0.975512 0.061471 -0.273343 
0.975512 0.061471 -0.373343 
0.98089 0.073594 -0.273343 
0.98089 0.073594 -0.373343 
0.985619 0.085965 -0.273343 
0.985619 0.085965 -0.373343 
0.989695 0.098585 -0.273343 
0.989695 0.098585 -0.373343 
0.99312 0.111452 -0.273343 
0.99312 0.111452 -0.373343 
0.995895 0.124568 -0.273343 
0.995895 0.124568 -0.373343 
0.998018 0.137933 -0.273343 
0.998018 0.137933 -0.373343 
0.999491 0.151546 -0.273343 
0.999491 0.151546 -0.373343 
1.00031 0.165406 -0.273343 
1.00031 0.165406 -0.373343 
1.00048 0.179516 -0.273343 
1.00048 0.179516 -0.373343 
1 0.193874 -0.273343 
1 0.193874 -0.373343 
1 0.333874 -0.273343 
1 0.333874 -0.373343 
0.950001 0.333874 -0.273343 
0.950001 0.333874 -0.373343 
0.950001 0.285087 -0.30213 
0.950001 0.291589 -0.311863 
0.950001 0.293874 -0.323343 
0.950001 0.291589 -0.334824 
0.950001 0.285087 -0.344557 
0.950001 0.275354 -0.35106 
0.950001 0.193874 -0.373343 
0.950001 0.263874 -0.353343 
0.950001 0.252393 -0.35106 
0.950001 0.24266 -0.344557 
0.950001 0.193874 -0.273343 
0.950001 0.236156 -0.334824 
0.950001 0.233874 -0.323343 
0.950001 0.236156 -0.311863 
0.950001 0.24266 -0.30213 
0.950001 0.252393 -0.295627 
0.950001 0.263874 -0.293344 
0.950001 0.275354 -0.295627 
0.950829 0.180508 -0.273343 
0.950829 0.180508 -0.373343 
0.951025 0.167398 -0.273343 
0.951025 0.167398 -0.373343 
0.950586 0.154547 -0.273343 
0.950586 0.154547 -0.373343 
0.949516 0.141953 -0.273343 
0.949516 0.141953 -0.373343 
0.947811 0.129616 -0.273343 
0.947811 0.129616 -0.373343 
0.945475 0.117536 -0.273343 
0.945475 0.117536 -0.373343 
0.942503 0.105714 -0.273343 
0.942503 0.105714 -0.373343 
0.9389 0.094148 -0.273343 
0.9389 0.094148 -0.373343 
0.934662 0.082839 -0.273343 
0.934662 0.082839 -0.373343 
0.929792 0.071789 -0.273343 
0.929792 0.071789 -0.373343 
0.924288 0.060995 -0.273343 
0.924288 0.060995 -0.373343 
0.91815 0.050457 -0.273343 
0.91815 0.050457 -0.373343 
0.911381 0.040178 -0.273343 
0.911381 0.040178 -0.373343 
0.903976 0.030156 -0.273343 
0.903976 0.030156 -0.373343 
0.895939 0.020391 -0.273343 
0.895939 0.020391 -0.373343 
0.887268 0.010884 -0.273343 
0.887268 0.010884 -0.373343 
0.86791 -0.008307 -0.273343 
0.86791 -0.008307 -0.373343 
0.84783 -0.026218 -0.273343 
0.84783 -0.026218 -0.373343 
0.82703 -0.042856 -0.273343 
0.82703 -0.042856 -0.373343 
0.805508 -0.058214 -0.273343 
0.805508 -0.058214 -0.373343 
0.783266 -0.072297 -0.273343 
0.783266 -0.072297 -0.373343 
0.760302 -0.085104 -0.273343 
0.760302 -0.085104 -0.373343 
0.736618 -0.096634 -0.273343 
0.736618 -0.096634 -0.373343 
0.712214 -0.106889 -0.273343 
0.712214 -0.106889 -0.373343 
0.626438 -0.137764 -0.273343 
0.626438 -0.137764 -0.373343 
0.539734 -0.16415 -0.273343 
0.539734 -0.16415 -0.373343 
0.452103 -0.186043 -0.273343 
0.452103 -0.186043 -0.373343 
0.363539 -0.203444 -0.273343 
0.363539 -0.203444 -0.373343 
0.274048 -0.216352 -0.273343 
0.274048 -0.216352 -0.373343 
0.183628 -0.224769 -0.273343 
0.183628 -0.224769 -0.373343 
0.092279 -0.228693 -0.273343 
0.092279 -0.228693 -0.373343 
0.03727 -0.236126 -0.373343 
0.03727 -0.236126 -0.273343 
0.0243 -0.236126 -0.264677 
0 -0.236126 -0.259843 
-0.0243 -0.236126 -0.264677 
-0.0243 -0.236126 -0.38201 
0 -0.236126 -0.386844 
0.0243 -0.236126 -0.38201 
-0.117975 0.374886 -0.346809 
-0.120287 0.374886 -0.323343 
-0.120287 0.217201 -0.323343 
-0.117975 0.217201 -0.346809 
-0.11113 0.374886 -0.369375 
-0.11113 0.217201 -0.369375 
-0.100014 0.374886 -0.390171 
-0.100014 0.217201 -0.390171 
-0.085054 0.374886 -0.408398 
-0.085054 0.217201 -0.408398 
-0.066828 0.374886 -0.423357 
-0.066828 0.217201 -0.423357 
-0.046032 0.374886 -0.434473 
-0.046032 0.217201 -0.434473 
-0.023466 0.374886 -0.441319 
-0.023466 0.217201 -0.441319 
0 0.374886 -0.443629 
0 0.217201 -0.443629 
0.023466 0.374886 -0.441319 
0.023466 0.217201 -0.441319 
0.046032 0.374886 -0.434473 
0.046032 0.217201 -0.434473 
0.066828 0.374886 -0.423357 
0.066828 0.217201 -0.423357 
0.085054 0.374886 -0.408398 
0.085054 0.217201 -0.408398 
0.100014 0.374886 -0.390171 
0.100014 0.217201 -0.390171 
0.11113 0.374886 -0.369375 
0.11113 0.217201 -0.369375 
0.117975 0.374886 -0.346809 
0.117975 0.217201 -0.346809 
0.120285 0.374886 -0.323343 
0.120285 0.217201 -0.323343 
0.117975 0.374886 -0.299877 
0.117975 0.217201 -0.299877 
0.11113 0.374886 -0.277311 
0.11113 0.217201 -0.277311 
0.100014 0.374886 -0.256516 
0.100014 0.217201 -0.256516 
0.085054 0.374886 -0.238289 
0.085054 0.217201 -0.238289 
0.066828 0.374886 -0.22333 
0.066828 0.217201 -0.22333 
0.046032 0.374886 -0.212214 
0.046032 0.217201 -0.212214 
0.023466 0.374886 -0.205368 
0.023466 0.217201 -0.205368 
0 0.374886 -0.203057 
0 0.217201 -0.203057 
-0.023466 0.374886 -0.205368 
-0.023466 0.217201 -0.205368 
-0.046032 0.374886 -0.212214 
-0.046032 0.217201 -0.212214 
-0.066828 0.374886 -0.22333 
-0.066828 0.217201 -0.22333 
-0.085054 0.374886 -0.238288 
-0.085054 0.217201 -0.238288 
-0.100014 0.374886 -0.256516 
-0.100014 0.217201 -0.256516 
-0.11113 0.374886 -0.277311 
-0.11113 0.217201 -0.277311 
-0.117975 0.374886 -0.299877 
-0.117975 0.217201 -0.299877 
-1.31218 0.614964 -0.584352 
-1.33788 0.614964 -0.323343 
-1.23604 0.614964 -0.835328 
-1.11241 0.614964 -1.06663 
-0.946025 0.614964 -1.26937 
-0.743287 0.614964 -1.43575 
-0.511986 0.614964 -1.55938 
-0.261007 0.614964 -1.63552 
0 0.614964 -1.66122 
0.261007 0.614964 -1.63552 
0.511986 0.614964 -1.55938 
0.743286 0.614964 -1.43575 
0.946026 0.614964 -1.26937 
1.11241 0.614964 -1.06663 
1.23604 0.614964 -0.835328 
1.31217 0.614964 -0.584352 
1.33788 0.614964 -0.323343 
1.31217 0.614964 -0.062336 
1.23604 0.614964 0.188643 
1.11241 0.614964 0.419944 
0.946026 0.614964 0.622682 
0.743288 0.614964 0.789063 
0.511986 0.614964 0.912698 
0.261007 0.614964 0.988832 
0 0.614964 1.01454 
-0.261007 0.614964 0.988832 
-0.511986 0.614964 0.912698 
-0.743287 0.614964 0.789063 
-0.946025 0.614964 0.622683 
-1.11241 0.614964 0.419944 
-1.23604 0.614964 0.188643 
-1.31218 0.614964 -0.062336 
-2.45196 1.38028 -0.811069 
-2.5 1.38028 -0.323343 
-2.3097 1.38028 -1.28005 
-2.07867 1.38028 -1.71227 
-1.76777 1.38028 -2.09111 
-1.38893 1.38028 -2.40202 
-0.956709 1.38028 -2.63304 
-0.487726 1.38028 -2.77531 
0 1.38028 -2.82334 
0.487726 1.38028 -2.77531 
0.956709 1.38028 -2.63304 
1.38893 1.38028 -2.40202 
1.76777 1.38028 -2.09111 
2.07867 1.38028 -1.71227 
2.3097 1.38028 -1.28005 
2.45196 1.38028 -0.811069 
2.5 1.38028 -0.323343 
2.45196 1.38028 0.164383 
2.3097 1.38028 0.633366 
2.07867 1.38028 1.06558 
1.76777 1.38028 1.44442 
1.38893 1.38028 1.75533 
0.956709 1.38028 1.98635 
0.487726 1.38028 2.12862 
0 1.38028 2.17666 
-0.487726 1.38028 2.12862 
-0.956709 1.38028 1.98635 
-1.38893 1.38028 1.75533 
-1.76777 1.38028 1.44442 
-2.07867 1.38028 1.06558 
-2.3097 1.38028 0.633366 
-2.45196 1.38028 0.164383 
-2.45196 1.58028 -0.811069 
-2.5 1.58028 -0.323343 
-2.3097 1.58028 -1.28005 
-2.07867 1.58028 -1.71227 
-1.76777 1.58028 -2.09111 
-1.38893 1.58028 -2.40202 
-0.956709 1.58028 -2.63304 
-0.487726 1.58028 -2.77531 
0 1.58028 -2.82334 
0.487726 1.58028 -2.77531 
0.956709 1.58028 -2.63304 
1.38893 1.58028 -2.40202 
1.76777 1.58028 -2.09111 
2.07867 1.58028 -1.71227 
2.3097 1.58028 -1.28005 
2.45196 1.58028 -0.811069 
2.5 1.58028 -0.323343 
2.45196 1.58028 0.164383 
2.3097 1.58028 0.633366 
2.07867 1.58028 1.06558 
1.76777 1.58028 1.44442 
1.38893 1.58028 1.75533 
0.956709 1.58028 1.98635 
0.487726 1.58028 2.12862 
0 1.58028 2.17666 
-0.487726 1.58028 2.12862 
-0.956709 1.58028 1.98635 
-1.38893 1.58028 1.75533 
-1.76777 1.58028 1.44442 
-2.07867 1.58028 1.06558 
-2.3097 1.58028 0.633366 
-2.45196 1.58028 0.164383 
0.184776 -0.970053 -0.246806 
0.184776 -0.870053 -0.246806 
0.200001 -0.870053 -0.323343 
0.200001 -0.970053 -0.323343 
0.141422 -0.970053 -0.181922 
0.141422 -0.870053 -0.181922 
0.076536 -0.970053 -0.138567 
0.076536 -0.870053 -0.138567 
0 -0.970053 -0.123343 
0 -0.932366 -0.123343 
0.009567 -0.93043 -0.125217 
0.017677 -0.924982 -0.126839 
0.023096 -0.916851 -0.127921 
0.025 -0.907276 -0.128302 
0.023096 -0.897714 -0.12792 
0.017677 -0.889621 -0.126836 
0 -0.870053 -0.123343 
0.009567 -0.884229 -0.125214 
0 -0.882358 -0.123343 
-0.009567 -0.884231 -0.125118 
-0.076536 -0.870053 -0.138567 
-0.017677 -0.889622 -0.126767 
-0.076536 -0.970053 -0.138567 
-0.023096 -0.897714 -0.12787 
-0.025 -0.907276 -0.128257 
-0.023096 -0.916852 -0.12787 
-0.017677 -0.924983 -0.12677 
-0.009567 -0.930432 -0.125122 
-0.141422 -0.970053 -0.181922 
-0.141422 -0.870053 -0.181922 
-0.184776 -0.970053 -0.246807 
-0.184776 -0.870053 -0.246807 
-0.200001 -0.970053 -0.323343 
-0.200001 -0.870053 -0.323343 
-0.184776 -0.970053 -0.399879 
-0.184776 -0.870053 -0.399879 
-0.141422 -0.970053 -0.464766 
-0.141422 -0.870053 -0.464766 
-0.076536 -0.970053 -0.508121 
-0.076536 -0.870053 -0.508121 
0 -0.970053 -0.523343 
0 -0.870053 -0.523343 
0.076536 -0.970053 -0.508121 
0.076536 -0.870053 -0.508121 
0.141422 -0.970053 -0.464766 
0.141422 -0.870053 -0.464766 
0.184776 -0.970053 -0.39988 
0.184776 -0.870053 -0.39988 
-0.607847 0.948279 -1.41859 
0.001583 2.16714 -0.363027 
0 2.16679 -0.363342 
-0.629326 0.954492 -1.41337 
-0.015306 2.17042 -0.360297 
-0.019657 2.17383 -0.35739 
-0.592737 0.933279 -1.40999 
0.013044 2.14484 -0.360747 
-0.592848 0.918278 -1.39261 
0.001583 2.10714 -0.363027 
-0.608112 0.912065 -1.37662 
-0.016287 2.09572 -0.351552 
-0.010799 2.09572 -0.361195 
0 2.10538 -0.363342 
-0.629589 0.918278 -1.3714 
-0.035011 2.10743 -0.341558 
-0.028284 2.09572 -0.351626 
-0.644699 0.933279 -1.37999 
-0.038628 2.14542 -0.330246 
-0.036955 2.11969 -0.33865 
-0.64459 0.948279 -1.39738 
-0.035011 2.16743 -0.341558 
-0.036955 2.15827 -0.33865 
-0.028284 2.16844 -0.351626 
-0.64459 0.948279 0.750693 
-0.035011 2.16743 -0.305126 
-0.028284 2.16844 -0.295058 
-0.629326 0.954492 0.766681 
-0.019657 2.17383 -0.289294 
-0.644699 0.933279 0.73331 
-0.038628 2.14542 -0.316439 
-0.036955 2.15827 -0.308035 
-0.629589 0.918278 0.724712 
-0.035011 2.10743 -0.305126 
-0.036955 2.11969 -0.308035 
-0.608112 0.912065 0.729939 
-0.016287 2.09572 -0.295133 
-0.028284 2.09572 -0.295058 
-0.592848 0.918278 0.745926 
0.001583 2.10714 -0.283657 
0 2.10538 -0.283342 
-0.010799 2.09572 -0.28549 
-0.592737 0.933279 0.763309 
0.013044 2.14484 -0.285937 
-0.607847 0.948279 0.771906 
0.001583 2.16714 -0.283657 
-0.015306 2.17042 -0.286387 
0 2.16679 -0.283342 
0.036955 2.09572 -0.308035 
0.036955 2.1003 -0.308035 
0.038118 2.09572 -0.313879 
0.036955 2.29572 -0.308035 
0.040001 2.29572 -0.323342 
0.040001 2.17314 -0.323342 
0.036955 2.16722 -0.308035 
0.028284 2.13657 -0.295058 
0.033009 2.10771 -0.302129 
0.028284 2.09572 -0.295058 
0.033009 2.16771 -0.302129 
0.028284 2.29572 -0.295058 
0.028284 2.14829 -0.295058 
0.025717 2.145 -0.293344 
0.015306 2.29572 -0.286387 
0.015306 2.09572 -0.286387 
0 2.09572 -0.283342 
0 2.29572 -0.283342 
-0.015306 2.29572 -0.286387 
-0.028284 2.29572 -0.295058 
-0.036955 2.09572 -0.308035 
-0.036955 2.29572 -0.308035 
-0.040001 2.29572 -0.323342 
-0.040001 2.09572 -0.323342 
-0.036955 2.09572 -0.33865 
-0.036955 2.29572 -0.33865 
-0.028284 2.29572 -0.351626 
-0.015306 2.29572 -0.360297 
0 2.09572 -0.363342 
0 2.29572 -0.363342 
0.015306 2.29572 -0.360297 
0.015306 2.09572 -0.360297 
0.028284 2.09572 -0.351626 
0.028284 2.13657 -0.351626 
0.025717 2.145 -0.353342 
0.028284 2.29572 -0.351626 
0.028284 2.14829 -0.351626 
0.036955 2.09572 -0.33865 
0.036955 2.1003 -0.33865 
0.033009 2.10771 -0.344556 
0.033009 2.16771 -0.344556 
0.036955 2.29572 -0.33865 
0.036955 2.16722 -0.33865 
0.038118 2.09572 -0.332806 
0.032574 2.09572 -0.323342 
1.25244 0.948279 -0.302129 
1.25865 0.954492 -0.323342 
1.23744 0.933279 -0.293344 
1.22244 0.918278 -0.302129 
1.21622 0.912065 -0.323342 
1.22244 0.918278 -0.344556 
1.23744 0.933279 -0.353342 
1.25244 0.948279 -0.344556 
0.136749 -0.862434 -0.321084 
0.148016 -0.919078 -0.321084 
0.136749 -0.879025 -0.281031 
0.136749 -0.919078 -0.26444 
0.136749 -0.959131 -0.281031 
0.136749 -0.975722 -0.321084 
0.136749 -0.959131 -0.361136 
0.136749 -0.919078 -0.377728 
0.136749 -0.879025 -0.361136 
0.104663 -0.84507 -0.247075 
0.104663 -0.814414 -0.321084 
0.104663 -0.919078 -0.21642 
0.104663 -0.993086 -0.247075 
0.104663 -1.02374 -0.321084 
0.104663 -0.993086 -0.395092 
0.104663 -0.919078 -0.425748 
0.104663 -0.84507 -0.395092 
0.056643 -0.822382 -0.224387 
0.056643 -0.782328 -0.321084 
0.056643 -0.919078 -0.184334 
0.056643 -1.01577 -0.224387 
0.056643 -1.05583 -0.321084 
0.056643 -1.01577 -0.41778 
0.056643 -0.919078 -0.457833 
0.056643 -0.822382 -0.41778 
0 -0.814414 -0.21642 
0 -0.771061 -0.321084 
0 -0.919078 -0.173067 
0 -1.02374 -0.21642 
0 -1.06709 -0.321084 
0 -1.02374 -0.425748 
0 -0.919078 -0.4691 
0 -0.814414 -0.425748 
-0.056643 -0.822382 -0.224387 
-0.056643 -0.782328 -0.321084 
-0.056643 -0.919078 -0.184334 
-0.056643 -1.01577 -0.224387 
-0.056643 -1.05583 -0.321084 
-0.056643 -1.01577 -0.41778 
-0.056643 -0.919078 -0.457833 
-0.056643 -0.822382 -0.41778 
-0.104663 -0.84507 -0.247075 
-0.104663 -0.814414 -0.321084 
-0.104663 -0.919078 -0.21642 
-0.104663 -0.993086 -0.247075 
-0.104663 -1.02374 -0.321084 
-0.104663 -0.993086 -0.395092 
-0.104663 -0.919078 -0.425748 
-0.104663 -0.84507 -0.395092 
-0.136749 -0.879025 -0.281031 
-0.136749 -0.862434 -0.321084 
-0.136749 -0.919078 -0.26444 
-0.136749 -0.959131 -0.281031 
-0.136749 -0.975722 -0.321084 
-0.136749 -0.959131 -0.361136 
-0.136749 -0.919078 -0.377728 
-0.136749 -0.879025 -0.361136 
-0.148016 -0.919078 -0.321084 
0.09251 -0.292196 -0.228573 
-0.09251 -0.292196 -0.228573 
-0.09251 -0.292196 -0.413594 
0.09251 -0.292196 -0.413594 
-1.66311 0.991021 -0.654157 
-1.69569 0.991021 -0.323343 
-1.56662 0.991021 -0.972258 
-1.40992 0.991021 -1.26542 
-1.19904 0.991021 -1.52238 
-0.942078 0.991021 -1.73326 
-0.648914 0.991021 -1.88996 
-0.330814 0.991021 -1.98645 
0 0.991021 -2.01904 
0.330814 0.991021 -1.98645 
0.648914 0.991021 -1.88996 
0.942078 0.991021 -1.73326 
1.19904 0.991021 -1.52238 
1.40992 0.991021 -1.26542 
1.56662 0.991021 -0.972258 
1.66311 0.991021 -0.654157 
1.69569 0.991021 -0.323343 
1.66311 0.991021 0.00747 
1.56662 0.991021 0.325571 
1.40992 0.991021 0.618734 
1.19904 0.991021 0.875693 
0.942078 0.991021 1.08658 
0.648914 0.991021 1.24327 
0.330814 0.991021 1.33977 
0 0.991021 1.37235 
-0.330814 0.991021 1.33977 
-0.648914 0.991021 1.24327 
-0.942077 0.991021 1.08658 
-1.19904 0.991021 0.875694 
-1.40992 0.991021 0.618734 
-1.56662 0.991021 0.325571 
-1.66311 0.991021 0.00747 
-0.839314 0.655045 -0.490294 
-0.855758 0.655045 -0.323343 
-0.790616 0.655045 -0.650827 
-0.711536 0.655045 -0.798777 
-0.605112 0.655045 -0.928454 
-0.475433 0.655045 -1.03488 
-0.327484 0.655045 -1.11396 
-0.16695 0.655045 -1.16266 
0 0.655045 -1.1791 
0.16695 0.655045 -1.16266 
0.327484 0.655045 -1.11396 
0.475433 0.655045 -1.03488 
0.605112 0.655045 -0.928454 
0.711536 0.655045 -0.798777 
0.790615 0.655045 -0.650827 
0.839314 0.655045 -0.490294 
0.855757 0.655045 -0.323343 
0.839314 0.655045 -0.156393 
0.790615 0.655045 0.004141 
0.711536 0.655045 0.15209 
0.605112 0.655045 0.281769 
0.475433 0.655045 0.388192 
0.327484 0.655045 0.467273 
0.16695 0.655045 0.51597 
0 0.655045 0.532413 
-0.16695 0.655045 0.51597 
-0.327484 0.655045 0.467273 
-0.475433 0.655045 0.388193 
-0.605112 0.655045 0.281769 
-0.711536 0.655045 0.15209 
-0.790616 0.655045 0.004141 
-0.839314 0.655045 -0.156393 
0 0.580285 -0.323343 
-0.09251 -3.05684 -0.413594 
0.09251 -3.05684 -0.413594 
0.09251 -3.05684 -0.228573 
-0.09251 -3.05684 -0.228573 
0.184776 -1.68546 -0.246806 
0.184776 -1.58546 -0.246806 
0.200001 -1.58546 -0.323343 
0.200001 -1.68546 -0.323343 
0.141422 -1.68546 -0.181922 
0.141422 -1.58546 -0.181922 
0.076536 -1.68546 -0.138567 
0.076536 -1.58546 -0.138567 
0 -1.68546 -0.123343 
0 -1.64778 -0.123343 
0.009567 -1.64584 -0.125217 
0.017677 -1.64039 -0.126839 
0.023096 -1.63226 -0.127921 
0.025 -1.62268 -0.128302 
0.023096 -1.61312 -0.12792 
0.017677 -1.60503 -0.126836 
0 -1.58546 -0.123343 
0.009567 -1.59964 -0.125214 
0 -1.59777 -0.123343 
-0.009567 -1.59964 -0.125118 
-0.076536 -1.58546 -0.138567 
-0.017677 -1.60503 -0.126767 
-0.076536 -1.68546 -0.138567 
-0.023096 -1.61312 -0.12787 
-0.025 -1.62268 -0.128257 
-0.023096 -1.63226 -0.12787 
-0.017677 -1.64039 -0.12677 
-0.009567 -1.64584 -0.125122 
-0.141422 -1.68546 -0.181922 
-0.141422 -1.58546 -0.181922 
-0.184776 -1.68546 -0.246807 
-0.184776 -1.58546 -0.246807 
-0.200001 -1.68546 -0.323343 
-0.200001 -1.58546 -0.323343 
-0.184776 -1.68546 -0.399879 
-0.184776 -1.58546 -0.399879 
-0.141422 -1.68546 -0.464766 
-0.141422 -1.58546 -0.464766 
-0.076536 -1.68546 -0.508121 
-0.076536 -1.58546 -0.508121 
0 -1.68546 -0.523343 
0 -1.58546 -0.523343 
0.076536 -1.68546 -0.508121 
0.076536 -1.58546 -0.508121 
0.141422 -1.68546 -0.464766 
0.141422 -1.58546 -0.464766 
0.184776 -1.68546 -0.39988 
0.184776 -1.58546 -0.39988 
0.184776 -3.07177 -0.246806 
0.184776 -2.97177 -0.246806 
0.200001 -2.97177 -0.323343 
0.200001 -3.07177 -0.323343 
0.141422 -3.07177 -0.181922 
0.141422 -2.97177 -0.181922 
0.076536 -3.07177 -0.138567 
0.076536 -2.97177 -0.138567 
0 -3.07177 -0.123343 
0 -3.03409 -0.123343 
0.009567 -3.03215 -0.125217 
0.017677 -3.0267 -0.126839 
0.023096 -3.01857 -0.127921 
0.025 -3.009 -0.128302 
0.023096 -2.99943 -0.12792 
0.017677 -2.99134 -0.126836 
0 -2.97177 -0.123343 
0.009567 -2.98595 -0.125214 
0 -2.98408 -0.123343 
-0.009567 -2.98595 -0.125118 
-0.076536 -2.97177 -0.138567 
-0.017677 -2.99134 -0.126767 
-0.076536 -3.07177 -0.138567 
-0.023096 -2.99943 -0.12787 
-0.025 -3.009 -0.128257 
-0.023096 -3.01857 -0.12787 
-0.017677 -3.0267 -0.12677 
-0.009567 -3.03215 -0.125122 
-0.141422 -3.07177 -0.181922 
-0.141422 -2.97177 -0.181922 
-0.184776 -3.07177 -0.246807 
-0.184776 -2.97177 -0.246807 
-0.200001 -3.07177 -0.323343 
-0.200001 -2.97177 -0.323343 
-0.184776 -3.07177 -0.399879 
-0.184776 -2.97177 -0.399879 
-0.141422 -3.07177 -0.464766 
-0.141422 -2.97177 -0.464766 
-0.076536 -3.07177 -0.508121 
-0.076536 -2.97177 -0.508121 
0 -3.07177 -0.523343 
0 -2.97177 -0.523343 
0.076536 -3.07177 -0.508121 
0.076536 -2.97177 -0.508121 
0.141422 -3.07177 -0.464766 
0.141422 -2.97177 -0.464766 
0.184776 -3.07177 -0.39988 
0.184776 -2.97177 -0.39988 
4 0 1 2 3 
4 1 4 5 2 
4 4 6 7 5 
4 6 8 9 7 
4 8 10 11 9 
4 10 12 13 11 
4 12 14 15 13 
4 14 16 17 15 
4 16 18 19 17 
4 18 20 21 19 
4 20 22 23 21 
4 22 0 3 23 
5 9 11 13 15 7 
3 5 7 15 
3 15 17 5 
3 2 5 17 
3 17 19 2 
3 19 21 2 
3 3 2 21 
3 23 3 21 
4 0 22 20 1 
3 4 1 20 
3 20 18 4 
3 6 4 18 
3 18 16 6 
3 8 6 16 
3 16 14 8 
3 10 8 14 
3 12 10 14 
3 24 25 26 
3 27 24 26 
3 28 27 26 
3 29 28 26 
3 30 29 26 
3 31 30 26 
3 32 31 26 
3 33 32 26 
3 34 33 26 
3 35 34 26 
3 36 35 26 
3 37 36 26 
3 38 37 26 
3 39 38 26 
3 40 39 26 
3 25 40 26 
4 24 41 42 25 
4 27 43 41 24 
4 28 44 43 27 
4 29 45 44 28 
4 30 46 45 29 
4 31 47 46 30 
4 32 48 47 31 
4 33 49 48 32 
4 34 50 49 33 
4 35 51 50 34 
4 36 52 51 35 
4 37 53 52 36 
4 38 54 53 37 
4 39 55 54 38 
4 40 56 55 39 
4 25 42 56 40 
4 41 57 58 42 
4 43 59 57 41 
4 44 60 59 43 
4 45 61 60 44 
4 46 62 61 45 
4 47 63 62 46 
4 48 64 63 47 
4 49 65 64 48 
4 50 66 65 49 
4 51 67 66 50 
4 52 68 67 51 
4 53 69 68 52 
4 54 70 69 53 
4 55 71 70 54 
4 56 72 71 55 
4 42 58 72 56 
4 57 73 74 58 
4 59 75 73 57 
4 60 76 75 59 
4 61 77 76 60 
4 62 78 77 61 
4 63 79 78 62 
4 64 80 79 63 
4 65 81 80 64 
4 66 82 81 65 
4 67 83 82 66 
4 68 84 83 67 
4 69 85 84 68 
4 70 86 85 69 
4 71 87 86 70 
4 72 88 87 71 
4 58 74 88 72 
3 73 89 74 
3 75 89 73 
3 76 89 75 
3 77 89 76 
3 78 89 77 
3 79 89 78 
3 80 89 79 
3 81 89 80 
3 82 89 81 
3 83 89 82 
3 84 89 83 
3 85 89 84 
3 86 89 85 
3 87 89 86 
3 88 89 87 
3 74 89 88 
4 90 91 92 93 
4 94 90 93 95 
4 96 94 95 97 
4 98 96 97 99 
4 100 98 99 101 
4 102 100 101 103 
4 104 102 103 105 
4 106 104 105 107 
4 108 106 107 109 
4 110 108 109 111 
4 112 110 111 113 
4 114 112 113 115 
4 116 114 115 117 
4 118 116 117 119 
4 120 118 119 121 
4 91 120 121 92 
6 91 90 94 122 123 120 
3 118 120 123 
3 123 124 118 
3 116 118 124 
3 124 125 116 
3 114 116 125 
3 125 126 114 
3 112 114 126 
3 126 127 112 
3 110 112 127 
3 127 128 110 
3 108 110 128 
3 128 129 108 
3 106 108 129 
3 129 130 106 
3 104 106 130 
3 130 131 104 
3 102 104 131 
3 131 132 102 
3 100 102 132 
3 132 133 100 
3 98 100 133 
3 133 134 98 
3 134 135 98 
3 136 98 135 
5 96 98 136 137 94 
3 122 94 137 
3 138 139 140 
3 139 141 140 
3 142 140 141 
3 141 143 142 
3 143 144 142 
3 144 145 142 
3 146 142 145 
4 142 147 148 140 
4 147 149 150 148 
4 149 151 152 150 
4 151 153 154 152 
4 153 155 156 154 
4 155 157 158 156 
4 157 159 160 158 
4 159 161 162 160 
4 161 163 164 162 
4 163 165 166 164 
4 165 167 168 166 
4 167 169 170 168 
4 169 171 172 170 
4 171 173 174 172 
4 173 175 176 174 
4 175 177 178 176 
4 177 179 180 178 
4 179 181 182 180 
4 181 183 184 182 
4 183 185 186 184 
4 185 187 188 186 
4 187 189 190 188 
4 189 191 192 190 
4 191 193 194 192 
4 193 195 196 194 
4 195 197 198 196 
4 197 199 200 198 
4 199 201 202 200 
4 201 203 204 202 
4 203 205 206 204 
4 205 207 208 206 
4 207 209 210 208 
4 209 211 212 210 
4 211 213 214 212 
3 214 215 212 
3 215 216 212 
3 217 212 216 
3 217 218 212 
3 219 212 218 
3 218 220 219 
3 220 221 219 
3 221 222 219 
3 223 219 222 
3 222 224 223 
3 224 225 223 
3 225 226 223 
3 226 227 223 
3 227 228 223 
3 211 223 228 
3 228 229 211 
3 229 230 211 
3 213 211 230 
4 223 231 232 219 
4 231 233 234 232 
4 233 235 236 234 
4 235 237 238 236 
4 237 239 240 238 
4 239 241 242 240 
4 241 243 244 242 
4 243 245 246 244 
4 245 247 248 246 
4 247 249 250 248 
4 249 251 252 250 
4 251 253 254 252 
4 253 255 256 254 
4 255 257 258 256 
4 257 259 260 258 
4 259 261 262 260 
4 261 263 264 262 
4 263 265 266 264 
4 265 267 268 266 
4 267 269 270 268 
4 269 271 272 270 
4 271 273 274 272 
4 273 275 276 274 
4 275 277 278 276 
4 277 279 280 278 
4 279 281 282 280 
4 281 283 284 282 
4 283 285 286 284 
4 285 287 288 286 
4 287 289 290 288 
4 289 291 292 290 
4 291 293 294 292 
16 186 188 190 192 194 196 198 200 202 204 206 208 212 219 232 184 
3 182 184 232 
3 232 234 182 
3 180 182 234 
3 234 236 180 
3 178 180 236 
3 236 238 178 
3 176 178 238 
3 238 240 176 
3 240 242 176 
3 242 244 176 
3 174 176 244 
3 244 246 174 
3 172 174 246 
3 246 248 172 
3 248 250 172 
3 170 172 250 
3 250 252 170 
3 168 170 252 
3 252 254 168 
3 254 256 168 
3 166 168 256 
3 256 258 166 
3 164 166 258 
3 258 260 164 
3 162 164 260 
3 260 262 162 
3 160 162 262 
3 262 264 160 
3 264 266 160 
3 266 268 160 
3 158 160 268 
3 268 270 158 
3 270 272 158 
3 272 274 158 
3 156 158 274 
3 274 276 156 
3 154 156 276 
3 276 278 154 
3 152 154 278 
3 278 280 152 
3 150 152 280 
3 280 282 150 
3 148 150 282 
3 282 284 148 
3 140 148 284 
3 284 286 140 
3 138 140 286 
3 286 288 138 
3 295 296 290 
3 288 290 138 
3 296 138 290 
3 290 292 295 
3 294 295 292 
3 210 212 208 
7 151 149 147 142 146 297 291 
3 293 291 297 
3 153 151 291 
3 298 293 297 
3 291 289 153 
3 155 153 289 
3 289 287 155 
3 157 155 287 
3 287 285 157 
3 159 157 285 
3 161 159 285 
3 285 283 161 
3 163 161 283 
3 165 163 283 
3 283 281 165 
3 167 165 281 
3 169 167 281 
3 281 279 169 
3 171 169 279 
3 279 277 171 
3 173 171 277 
3 277 275 173 
3 175 173 275 
3 275 273 175 
3 177 175 273 
3 179 177 273 
3 273 271 179 
3 181 179 271 
3 183 181 271 
3 271 269 183 
3 185 183 269 
3 187 185 269 
3 269 267 187 
3 189 187 267 
3 267 265 189 
3 191 189 265 
3 193 191 265 
3 265 263 193 
3 195 193 263 
3 263 261 195 
3 197 195 261 
3 261 259 197 
3 199 197 259 
3 259 257 199 
3 201 199 257 
3 257 255 201 
3 203 201 255 
3 255 253 203 
3 205 203 253 
3 253 251 205 
3 207 205 251 
3 251 249 207 
3 249 247 207 
3 247 245 207 
3 245 243 207 
3 209 207 243 
3 243 241 209 
3 241 239 209 
3 239 237 209 
3 237 235 209 
3 235 233 209 
3 211 209 233 
3 233 231 211 
3 223 211 231 
3 299 300 301 
3 300 302 301 
3 303 301 302 
3 302 304 303 
3 304 305 303 
3 305 306 303 
3 307 303 306 
4 303 308 309 301 
4 308 310 311 309 
4 310 312 313 311 
4 312 314 315 313 
4 314 316 317 315 
4 316 318 319 317 
4 318 320 321 319 
4 320 322 323 321 
4 322 324 325 323 
4 324 326 327 325 
4 326 328 329 327 
4 328 330 331 329 
4 330 332 333 331 
4 332 334 335 333 
4 334 336 337 335 
4 336 338 339 337 
4 338 340 341 339 
4 340 342 343 341 
4 342 344 345 343 
4 344 346 347 345 
4 346 348 349 347 
4 348 350 351 349 
4 350 352 353 351 
4 352 354 355 353 
4 354 356 357 355 
4 356 358 359 357 
4 358 360 361 359 
4 360 362 363 361 
4 362 364 365 363 
4 364 366 367 365 
4 366 368 369 367 
4 368 370 371 369 
4 370 372 373 371 
4 372 374 375 373 
3 375 376 373 
3 376 377 373 
3 378 373 377 
3 378 379 373 
3 380 373 379 
3 379 381 380 
3 381 382 380 
3 382 383 380 
3 384 380 383 
3 383 385 384 
3 385 386 384 
3 386 387 384 
3 387 388 384 
3 388 389 384 
3 372 384 389 
3 389 390 372 
3 390 391 372 
3 374 372 391 
4 384 392 393 380 
4 392 394 395 393 
4 394 396 397 395 
4 396 398 399 397 
4 398 400 401 399 
4 400 402 403 401 
4 402 404 405 403 
4 404 406 407 405 
4 406 408 409 407 
4 408 410 411 409 
4 410 412 413 411 
4 412 414 415 413 
4 414 416 417 415 
4 416 418 419 417 
4 418 420 421 419 
4 420 422 423 421 
4 422 424 425 423 
4 424 426 427 425 
4 426 428 429 427 
4 428 430 431 429 
4 430 432 433 431 
4 432 434 435 433 
4 434 436 437 435 
4 436 438 439 437 
4 438 440 441 439 
4 440 442 443 441 
4 442 444 445 443 
4 444 446 447 445 
4 446 448 449 447 
4 448 450 451 449 
4 450 452 453 451 
4 452 294 293 453 
16 347 349 351 353 355 357 359 361 363 365 367 369 373 380 393 345 
3 343 345 393 
3 393 395 343 
3 341 343 395 
3 395 397 341 
3 339 341 397 
3 397 399 339 
3 337 339 399 
3 399 401 337 
3 401 403 337 
3 403 405 337 
3 335 337 405 
3 405 407 335 
3 333 335 407 
3 407 409 333 
3 409 411 333 
3 331 333 411 
3 411 413 331 
3 329 331 413 
3 413 415 329 
3 415 417 329 
3 327 329 417 
3 417 419 327 
3 325 327 419 
3 419 421 325 
3 323 325 421 
3 421 423 323 
3 321 323 423 
3 423 425 321 
3 425 427 321 
3 427 429 321 
3 319 321 429 
3 429 431 319 
3 431 433 319 
3 317 319 433 
3 433 435 317 
3 435 437 317 
3 315 317 437 
3 437 439 315 
3 313 315 439 
3 439 441 313 
3 311 313 441 
3 441 443 311 
3 309 311 443 
3 443 445 309 
3 301 309 445 
3 445 447 301 
3 299 301 447 
3 447 449 299 
3 298 454 451 
3 449 451 299 
3 454 299 451 
3 451 453 298 
3 293 298 453 
3 371 373 369 
7 312 310 308 303 307 455 452 
3 294 452 455 
3 314 312 452 
3 295 294 455 
3 452 450 314 
3 316 314 450 
3 450 448 316 
3 318 316 448 
3 448 446 318 
3 320 318 446 
3 322 320 446 
3 446 444 322 
3 324 322 444 
3 326 324 444 
3 444 442 326 
3 328 326 442 
3 330 328 442 
3 442 440 330 
3 332 330 440 
3 440 438 332 
3 334 332 438 
3 438 436 334 
3 336 334 436 
3 436 434 336 
3 338 336 434 
3 340 338 434 
3 434 432 340 
3 342 340 432 
3 344 342 432 
3 432 430 344 
3 346 344 430 
3 348 346 430 
3 430 428 348 
3 350 348 428 
3 428 426 350 
3 352 350 426 
3 354 352 426 
3 426 424 354 
3 356 354 424 
3 424 422 356 
3 358 356 422 
3 422 420 358 
3 360 358 420 
3 420 418 360 
3 362 360 418 
3 418 416 362 
3 364 362 416 
3 416 414 364 
3 366 364 414 
3 414 412 366 
3 368 366 412 
3 412 410 368 
3 410 408 368 
3 408 406 368 
3 406 404 368 
3 370 368 404 
3 404 402 370 
3 402 400 370 
3 400 398 370 
3 398 396 370 
3 396 394 370 
3 372 370 394 
3 394 392 372 
3 384 372 392 
4 216 215 376 375 
4 217 216 375 374 
4 218 217 374 391 
4 220 218 391 390 
4 221 220 390 389 
4 222 221 389 388 
4 224 222 388 387 
4 225 224 387 386 
4 226 225 386 385 
4 227 226 385 383 
4 228 227 383 382 
4 229 228 382 381 
4 230 229 381 379 
4 213 230 379 378 
4 214 213 378 377 
4 215 214 377 376 
4 305 304 124 123 
4 306 305 123 122 
4 456 455 307 137 
3 122 137 307 
3 306 122 307 
4 457 456 137 136 
4 458 457 136 135 
4 134 139 138 135 
3 458 135 138 
3 296 458 138 
4 141 139 134 133 
4 143 141 133 132 
4 144 143 132 131 
4 145 144 131 130 
4 459 297 146 129 
3 130 129 146 
3 145 130 146 
4 460 459 129 128 
4 461 460 128 127 
4 126 300 299 127 
3 461 127 299 
3 454 461 299 
4 302 300 126 125 
4 304 302 125 124 
5 457 458 296 295 456 
3 455 456 295 
5 460 461 454 298 459 
3 297 459 298 
16 121 119 117 115 113 111 109 107 105 103 101 99 97 95 93 92 
4 462 463 464 465 
4 466 462 465 467 
4 468 466 467 469 
4 470 468 469 471 
4 472 470 471 473 
4 474 472 473 475 
4 476 474 475 477 
4 478 476 477 479 
4 480 478 479 481 
4 482 480 481 483 
4 484 482 483 485 
4 486 484 485 487 
4 488 486 487 489 
4 490 488 489 491 
4 492 490 491 493 
4 494 492 493 495 
4 496 494 495 497 
4 498 496 497 499 
4 500 498 499 501 
4 502 500 501 503 
4 504 502 503 505 
4 506 504 505 507 
4 508 506 507 509 
4 510 508 509 511 
4 512 510 511 513 
4 514 512 513 515 
4 516 514 515 517 
4 518 516 517 519 
4 520 518 519 521 
4 522 520 521 523 
4 524 522 523 525 
4 463 524 525 464 
4 462 526 527 463 
4 466 528 526 462 
4 468 529 528 466 
4 470 530 529 468 
4 472 531 530 470 
4 474 532 531 472 
4 476 533 532 474 
4 478 534 533 476 
4 480 535 534 478 
4 482 536 535 480 
4 484 537 536 482 
4 486 538 537 484 
4 488 539 538 486 
4 490 540 539 488 
4 492 541 540 490 
4 494 542 541 492 
4 496 543 542 494 
4 498 544 543 496 
4 500 545 544 498 
4 502 546 545 500 
4 504 547 546 502 
4 506 548 547 504 
4 508 549 548 506 
4 510 550 549 508 
4 512 551 550 510 
4 514 552 551 512 
4 516 553 552 514 
4 518 554 553 516 
4 520 555 554 518 
4 522 556 555 520 
4 524 557 556 522 
4 463 527 557 524 
4 526 558 559 527 
4 528 560 558 526 
4 529 561 560 528 
4 530 562 561 529 
4 531 563 562 530 
4 532 564 563 531 
4 533 565 564 532 
4 534 566 565 533 
4 535 567 566 534 
4 536 568 567 535 
4 537 569 568 536 
4 538 570 569 537 
4 539 571 570 538 
4 540 572 571 539 
4 541 573 572 540 
4 542 574 573 541 
4 543 575 574 542 
4 544 576 575 543 
4 545 577 576 544 
4 546 578 577 545 
4 547 579 578 546 
4 548 580 579 547 
4 549 581 580 548 
4 550 582 581 549 
4 551 583 582 550 
4 552 584 583 551 
4 553 585 584 552 
4 554 586 585 553 
4 555 587 586 554 
4 556 588 587 555 
4 557 589 588 556 
4 527 559 589 557 
4 558 590 591 559 
4 560 592 590 558 
4 561 593 592 560 
4 562 594 593 561 
4 563 595 594 562 
4 564 596 595 563 
4 565 597 596 564 
4 566 598 597 565 
4 567 599 598 566 
4 568 600 599 567 
4 569 601 600 568 
4 570 602 601 569 
4 571 603 602 570 
4 572 604 603 571 
4 573 605 604 572 
4 574 606 605 573 
4 575 607 606 574 
4 576 608 607 575 
4 577 609 608 576 
4 578 610 609 577 
4 579 611 610 578 
4 580 612 611 579 
4 581 613 612 580 
4 582 614 613 581 
4 583 615 614 582 
4 584 616 615 583 
4 585 617 616 584 
4 586 618 617 585 
4 587 619 618 586 
4 588 620 619 587 
4 589 621 620 588 
4 559 591 621 589 
32 525 523 521 519 517 515 513 511 509 507 505 503 501 499 497 495 493 491 489 487 485 483 481 479 477 475 473 471 469 467 465 464 
4 622 623 624 625 
4 626 627 623 622 
4 628 629 627 626 
4 630 631 632 628 
3 632 633 628 
3 629 628 633 
3 633 634 629 
3 634 635 629 
3 635 636 629 
3 636 637 629 
3 638 629 637 
3 637 639 638 
3 640 638 639 
4 638 640 641 642 
3 641 643 642 
3 644 642 643 
3 643 645 644 
3 645 646 644 
3 646 647 644 
3 630 644 647 
3 647 648 630 
3 648 649 630 
3 631 630 649 
4 650 651 642 644 
4 652 653 651 650 
4 654 655 653 652 
4 656 657 655 654 
4 658 659 657 656 
4 660 661 659 658 
4 662 663 661 660 
4 664 665 663 662 
4 666 667 665 664 
4 668 669 667 666 
4 625 624 669 668 
16 623 627 629 638 642 651 653 655 657 659 661 663 665 667 669 624 
16 666 664 662 660 658 656 654 652 650 644 630 628 626 622 625 668 
4 670 671 672 673 
3 672 674 673 
3 675 673 674 
4 676 677 671 670 
4 678 679 677 676 
4 680 681 682 678 
3 682 683 678 
3 679 678 683 
4 684 685 686 680 
3 681 680 686 
4 687 688 689 684 
3 685 684 689 
4 690 691 692 687 
3 688 687 692 
4 673 675 693 690 
3 691 690 693 
8 687 684 680 678 676 670 673 690 
4 694 695 696 697 
3 698 697 696 
4 699 700 701 694 
3 695 694 701 
4 702 703 704 699 
3 700 699 704 
4 705 706 707 702 
3 703 702 707 
4 708 709 710 705 
3 710 711 705 
3 706 705 711 
4 712 713 709 708 
4 714 715 713 712 
4 697 698 716 714 
3 716 717 714 
3 715 714 717 
8 712 708 705 702 699 694 697 714 
3 718 719 720 
4 721 722 723 724 
3 725 726 727 
3 718 727 726 
3 719 718 726 
4 721 724 728 729 
3 730 729 728 
4 729 730 731 732 
3 733 732 731 
3 727 733 731 
3 725 727 731 
4 734 710 709 733 
3 709 713 733 
3 732 733 713 
3 735 732 713 
3 713 715 735 
3 717 735 715 
3 711 710 734 
4 736 735 717 716 
4 736 716 698 737 
3 696 737 698 
3 704 703 738 
3 707 738 703 
4 737 696 695 739 
3 701 739 695 
4 739 701 700 740 
3 741 740 700 
3 738 741 700 
3 704 738 700 
4 742 689 688 741 
3 740 741 688 
3 743 740 688 
3 692 743 688 
3 686 685 742 
3 689 742 685 
4 743 692 691 744 
3 693 744 691 
4 744 693 675 745 
3 674 745 675 
3 746 683 682 
4 747 745 674 672 
4 747 672 671 748 
3 671 677 748 
3 749 748 677 
3 746 749 677 
3 677 679 746 
3 683 746 679 
4 750 751 752 749 
3 748 749 752 
3 753 748 752 
3 754 753 752 
4 755 756 757 750 
3 751 750 757 
4 753 754 758 759 
3 760 759 758 
3 761 756 755 
4 722 759 760 723 
16 721 729 732 735 736 737 739 740 743 744 745 747 748 753 759 722 
9 682 681 738 707 706 718 720 762 746 
3 749 746 762 
3 727 718 706 
3 750 749 762 
3 733 727 706 
3 741 738 681 
3 755 750 762 
3 734 733 706 
3 742 741 681 
3 761 755 762 
3 711 734 706 
3 686 742 681 
4 763 728 724 764 
3 723 764 724 
4 765 731 730 763 
3 728 763 730 
4 766 726 725 765 
3 731 765 725 
4 767 762 720 766 
3 720 719 766 
3 726 766 719 
4 768 757 756 767 
3 756 761 767 
3 762 767 761 
4 769 752 751 768 
3 757 768 751 
4 770 758 754 769 
3 752 769 754 
4 764 723 760 770 
3 758 770 760 
8 769 768 767 766 765 763 764 770 
3 771 772 773 
3 773 772 774 
3 774 772 775 
3 775 772 776 
3 776 772 777 
3 777 772 778 
3 778 772 779 
3 779 772 771 
4 773 780 781 771 
4 774 782 780 773 
4 775 783 782 774 
4 776 784 783 775 
4 777 785 784 776 
4 778 786 785 777 
4 779 787 786 778 
4 771 781 787 779 
4 780 788 789 781 
4 782 790 788 780 
4 783 791 790 782 
4 784 792 791 783 
4 785 793 792 784 
4 786 794 793 785 
4 787 795 794 786 
4 781 789 795 787 
4 788 796 797 789 
4 790 798 796 788 
4 791 799 798 790 
4 792 800 799 791 
4 793 801 800 792 
4 794 802 801 793 
4 795 803 802 794 
4 789 797 803 795 
4 796 804 805 797 
4 798 806 804 796 
4 799 807 806 798 
4 800 808 807 799 
4 801 809 808 800 
4 802 810 809 801 
4 803 811 810 802 
4 797 805 811 803 
4 804 812 813 805 
4 806 814 812 804 
4 807 815 814 806 
4 808 816 815 807 
4 809 817 816 808 
4 810 818 817 809 
4 811 819 818 810 
4 805 813 819 811 
4 812 820 821 813 
4 814 822 820 812 
4 815 823 822 814 
4 816 824 823 815 
4 817 825 824 816 
4 818 826 825 817 
4 819 827 826 818 
4 813 821 827 819 
3 820 828 821 
3 822 828 820 
3 823 828 822 
3 824 828 823 
3 825 828 824 
3 826 828 825 
3 827 828 826 
3 821 828 827 
4 829 830 831 832 
4 590 833 834 591 
4 592 835 833 590 
4 593 836 835 592 
4 594 837 836 593 
4 595 838 837 594 
4 596 839 838 595 
4 597 840 839 596 
4 598 841 840 597 
4 599 842 841 598 
4 600 843 842 599 
4 601 844 843 600 
4 602 845 844 601 
4 603 846 845 602 
4 604 847 846 603 
4 605 848 847 604 
4 606 849 848 605 
4 607 850 849 606 
4 608 851 850 607 
4 609 852 851 608 
4 610 853 852 609 
4 611 854 853 610 
4 612 855 854 611 
4 613 856 855 612 
4 614 857 856 613 
4 615 858 857 614 
4 616 859 858 615 
4 617 860 859 616 
4 618 861 860 617 
4 619 862 861 618 
4 620 863 862 619 
4 621 864 863 620 
4 591 834 864 621 
4 833 865 866 834 
4 835 867 865 833 
4 836 868 867 835 
4 837 869 868 836 
4 838 870 869 837 
4 839 871 870 838 
4 840 872 871 839 
4 841 873 872 840 
4 842 874 873 841 
4 843 875 874 842 
4 844 876 875 843 
4 845 877 876 844 
4 846 878 877 845 
4 847 879 878 846 
4 848 880 879 847 
4 849 881 880 848 
4 850 882 881 849 
4 851 883 882 850 
4 852 884 883 851 
4 853 885 884 852 
4 854 886 885 853 
4 855 887 886 854 
4 856 888 887 855 
4 857 889 888 856 
4 858 890 889 857 
4 859 891 890 858 
4 860 892 891 859 
4 861 893 892 860 
4 862 894 893 861 
4 863 895 894 862 
4 864 896 895 863 
4 834 866 896 864 
3 865 897 866 
3 867 897 865 
3 868 897 867 
3 869 897 868 
3 870 897 869 
3 871 897 870 
3 872 897 871 
3 873 897 872 
3 874 897 873 
3 875 897 874 
3 876 897 875 
3 877 897 876 
3 878 897 877 
3 879 897 878 
3 880 897 879 
3 881 897 880 
3 882 897 881 
3 883 897 882 
3 884 897 883 
3 885 897 884 
3 886 897 885 
3 887 897 886 
3 888 897 887 
3 889 897 888 
3 890 897 889 
3 891 897 890 
3 892 897 891 
3 893 897 892 
3 894 897 893 
3 895 897 894 
3 896 897 895 
3 866 897 896 
4 832 831 898 899 
4 900 901 830 829 
4 829 832 899 900 
4 831 830 901 898 
4 899 898 901 900 
4 902 903 904 905 
4 906 907 903 902 
4 908 909 907 906 
4 910 911 912 908 
3 912 913 908 
3 909 908 913 
3 913 914 909 
3 914 915 909 
3 915 916 909 
3 916 917 909 
3 918 909 917 
3 917 919 918 
3 920 918 919 
4 918 920 921 922 
3 921 923 922 
3 924 922 923 
3 923 925 924 
3 925 926 924 
3 926 927 924 
3 910 924 927 
3 927 928 910 
3 928 929 910 
3 911 910 929 
4 930 931 922 924 
4 932 933 931 930 
4 934 935 933 932 
4 936 937 935 934 
4 938 939 937 936 
4 940 941 939 938 
4 942 943 941 940 
4 944 945 943 942 
4 946 947 945 944 
4 948 949 947 946 
4 905 904 949 948 
16 903 907 909 918 922 931 933 935 937 939 941 943 945 947 949 904 
16 946 944 942 940 938 936 934 932 930 924 910 908 906 902 905 948 
4 950 951 952 953 
4 954 955 951 950 
4 956 957 955 954 
4 958 959 960 956 
3 960 961 956 
3 957 956 961 
3 961 962 957 
3 962 963 957 
3 963 964 957 
3 964 965 957 
3 966 957 965 
3 965 967 966 
3 968 966 967 
4 966 968 969 970 
3 969 971 970 
3 972 970 971 
3 971 973 972 
3 973 974 972 
3 974 975 972 
3 958 972 975 
3 975 976 958 
3 976 977 958 
3 959 958 977 
4 978 979 970 972 
4 980 981 979 978 
4 982 983 981 980 
4 984 985 983 982 
4 986 987 985 984 
4 988 989 987 986 
4 990 991 989 988 
4 992 993 991 990 
4 994 995 993 992 
4 996 997 995 994 
4 953 952 997 996 
16 951 955 957 966 970 979 981 983 985 987 989 991 993 995 997 952 
16 994 992 990 988 986 984 982 980 978 972 958 956 954 950 953 996 
